<svg xmlns="http://www.w3.org/2000/svg" width="900" height="520" viewBox="0 0 900 520">
<rect width="100%" height="100%" fill="white"/>
<text x="450" y="30" text-anchor="middle" font-family="sans-serif" font-size="21" font-weight="600">Five-seed p95 TTFT at 1.6 arrivals/s</text>
<line x1="90" y1="420.0" x2="860" y2="420.0" stroke="#e5e7eb"/>
<text x="78" y="425.0" text-anchor="end" font-family="sans-serif" font-size="12">0</text>
<line x1="90" y1="347.0" x2="860" y2="347.0" stroke="#e5e7eb"/>
<text x="78" y="352.0" text-anchor="end" font-family="sans-serif" font-size="12">75</text>
<line x1="90" y1="274.0" x2="860" y2="274.0" stroke="#e5e7eb"/>
<text x="78" y="279.0" text-anchor="end" font-family="sans-serif" font-size="12">149</text>
<line x1="90" y1="201.0" x2="860" y2="201.0" stroke="#e5e7eb"/>
<text x="78" y="206.0" text-anchor="end" font-family="sans-serif" font-size="12">224</text>
<line x1="90" y1="128.0" x2="860" y2="128.0" stroke="#e5e7eb"/>
<text x="78" y="133.0" text-anchor="end" font-family="sans-serif" font-size="12">299</text>
<line x1="90" y1="55.0" x2="860" y2="55.0" stroke="#e5e7eb"/>
<text x="78" y="60.0" text-anchor="end" font-family="sans-serif" font-size="12">373</text>
<rect x="133.8" y="158.3" width="105.0" height="261.7" fill="#2563eb" opacity="0.78"/>
<line x1="186.2" y1="94.1" x2="186.2" y2="222.4" stroke="#111827" stroke-width="2"/>
<line x1="177.2" y1="94.1" x2="195.2" y2="94.1" stroke="#111827" stroke-width="2"/>
<line x1="177.2" y1="222.4" x2="195.2" y2="222.4" stroke="#111827" stroke-width="2"/>
<text x="186.2" y="444" text-anchor="middle" font-family="sans-serif" font-size="12">least_loaded</text>
<text x="186.2" y="463" text-anchor="middle" font-family="sans-serif" font-size="11">n=5</text>
<rect x="326.2" y="186.6" width="105.0" height="233.4" fill="#16a34a" opacity="0.78"/>
<line x1="378.8" y1="120.4" x2="378.8" y2="252.8" stroke="#111827" stroke-width="2"/>
<line x1="369.8" y1="120.4" x2="387.8" y2="120.4" stroke="#111827" stroke-width="2"/>
<line x1="369.8" y1="252.8" x2="387.8" y2="252.8" stroke="#111827" stroke-width="2"/>
<text x="378.8" y="444" text-anchor="middle" font-family="sans-serif" font-size="12">cache_max</text>
<text x="378.8" y="463" text-anchor="middle" font-family="sans-serif" font-size="11">n=5</text>
<rect x="518.8" y="158.3" width="105.0" height="261.7" fill="#ea580c" opacity="0.78"/>
<line x1="571.2" y1="94.1" x2="571.2" y2="222.4" stroke="#111827" stroke-width="2"/>
<line x1="562.2" y1="94.1" x2="580.2" y2="94.1" stroke="#111827" stroke-width="2"/>
<line x1="562.2" y1="222.4" x2="580.2" y2="222.4" stroke="#111827" stroke-width="2"/>
<text x="571.2" y="444" text-anchor="middle" font-family="sans-serif" font-size="12">weighted_fair</text>
<text x="571.2" y="463" text-anchor="middle" font-family="sans-serif" font-size="11">n=5</text>
<rect x="711.2" y="186.6" width="105.0" height="233.4" fill="#9333ea" opacity="0.78"/>
<line x1="763.8" y1="120.4" x2="763.8" y2="252.8" stroke="#111827" stroke-width="2"/>
<line x1="754.8" y1="120.4" x2="772.8" y2="120.4" stroke="#111827" stroke-width="2"/>
<line x1="754.8" y1="252.8" x2="772.8" y2="252.8" stroke="#111827" stroke-width="2"/>
<text x="763.8" y="444" text-anchor="middle" font-family="sans-serif" font-size="12">slo_guarded_affinity</text>
<text x="763.8" y="463" text-anchor="middle" font-family="sans-serif" font-size="11">n=5</text>
<text x="22" y="237.5" transform="rotate(-90 22 237.5)" text-anchor="middle" font-family="sans-serif" font-size="14">p95 TTFT (ms, mean ± 95% CI)</text>
</svg>
